<svg xmlns="http://www.w3.org/2000/svg" width="180" height="140" viewBox="0 0 180 140"><g stroke="#273b46" stroke-width="4" stroke-linecap="round" stroke-linejoin="round"><path d="M68 90 Q40 74 51 59" fill="none" stroke="#93b3c9" stroke-width="12"/><rect x="65" y="71" width="68" height="39" rx="20" fill="#93b3c9"/><path d="M72 104 V121 H88 V102 M100 104 V121 H116 V102" fill="#93b3c9"/><path d="M112 54 L111 20 L133 37 L154 25 L160 65" fill="#526a80"/><ellipse cx="134" cy="65" rx="31" ry="34" fill="#93b3c9"/><path d="M111 48 L133 62 L153 47 L158 78 Q136 99 113 78Z" fill="#f5f9ef"/><ellipse cx="146" cy="78" rx="23" ry="14" fill="#fffdf0"/><circle cx="126" cy="61" r="5" fill="#55c9f3"/><circle cx="148" cy="60" r="5" fill="#55c9f3"/><ellipse cx="158" cy="75" rx="7" ry="5" fill="#273b46"/><path d="M139 89 Q144 106 151 89" fill="#f69b9b"/><path d="M110 92 L128 97" stroke="#e56e61" stroke-width="8"/></g></svg>