<svg xmlns="http://www.w3.org/2000/svg" width="180" height="140" viewBox="0 0 180 140"><g stroke="#273b46" stroke-width="4" stroke-linecap="round" stroke-linejoin="round"><path d="M36 49 Q21 25 44 26 L66 42 H119 L142 25 Q164 23 147 49 V94 Q166 120 142 117 L120 102 H65 L42 119 Q20 119 35 94Z" fill="#f1c45b"/><g fill="#be8848" stroke="none"><circle cx="61" cy="65" r="4"/><circle cx="91" cy="87" r="4"/><circle cx="121" cy="65" r="4"/></g><path d="M86 50 L92 63 L106 65 L96 75 L98 88 L85 81 L73 88 L75 74 L65 65 L80 63Z" fill="#fff0b0"/></g></svg>